<?xml version="1.0" encoding="UTF-8"?>
<svg width="19px" height="23px" viewBox="0 0 19 23" version="1.1" xmlns="http://www.w3.org/2000/svg" xmlns:xlink="http://www.w3.org/1999/xlink">
    <!-- Generator: Sketch 46.2 (44496) - http://www.bohemiancoding.com/sketch -->
    <title>bin</title>
    <desc>Created with Sketch.</desc>
    <defs></defs>
    <g id="Page-1" stroke="none" stroke-width="1" fill="none" fill-rule="evenodd">
        <g id="list" transform="translate(-279.000000, -292.000000)" fill-rule="nonzero" fill="#979797">
            <g id="bin" transform="translate(279.000000, 292.000000)">
                <path d="M1,7 L1,21.5454545 C1,22.3454545 1.65454545,23 2.45454545,23 L15.5454545,23 C16.3454545,23 17,22.3454545 17,21.5454545 L17,7 L1,7 Z M5.36363636,20.0909091 L3.90909091,20.0909091 L3.90909091,9.90909091 L5.36363636,9.90909091 L5.36363636,20.0909091 Z M8.27272727,20.0909091 L6.81818182,20.0909091 L6.81818182,9.90909091 L8.27272727,9.90909091 L8.27272727,20.0909091 Z M11.1818182,20.0909091 L9.72727273,20.0909091 L9.72727273,9.90909091 L11.1818182,9.90909091 L11.1818182,20.0909091 Z M14.0909091,20.0909091 L12.6363636,20.0909091 L12.6363636,9.90909091 L14.0909091,9.90909091 L14.0909091,20.0909091 Z" id="Shape"></path>
                <path d="M17.9038462,3 L13.1538462,3 L13.1538462,1.125 C13.1538462,0.50625 12.6605769,0 12.0576923,0 L6.94230769,0 C6.33942308,0 5.84615385,0.50625 5.84615385,1.125 L5.84615385,3 L1.09615385,3 C0.493269231,3 0,3.50625 0,4.125 L0,6 L19,6 L19,4.125 C19,3.50625 18.5067308,3 17.9038462,3 Z M11.6923077,3 L7.30769231,3 L7.30769231,1.51875 L11.6923077,1.51875 L11.6923077,3 Z" id="Shape"></path>
            </g>
        </g>
    </g>
</svg>